<?xml version="1.0" encoding="utf-8"?>
<!-- Generator: Adobe Illustrator 16.0.0, SVG Export Plug-In . SVG Version: 6.00 Build 0)  -->
<!DOCTYPE svg PUBLIC "-//W3C//DTD SVG 1.1//EN" "http://www.w3.org/Graphics/SVG/1.1/DTD/svg11.dtd">
<svg version="1.1" id="Layer_1" xmlns="http://www.w3.org/2000/svg" xmlns:xlink="http://www.w3.org/1999/xlink" x="0px" y="0px"
	 width="20px" height="20px" viewBox="0 0 20 20" enable-background="new 0 0 20 20" xml:space="preserve">
<path fill="#D2D8D8" d="M1.908,14.877h-0.78c-0.149,0-0.27-0.12-0.27-0.269V4.332c0-0.149,0.121-0.27,0.27-0.27h0.78
	c0.149,0,0.269,0.121,0.269,0.27v10.277C2.177,14.757,2.058,14.877,1.908,14.877z M5.148,4.062H3.824c-0.149,0-0.27,0.121-0.27,0.27
	v10.277c0,0.148,0.121,0.269,0.27,0.269h1.325c0.148,0,0.269-0.12,0.269-0.269V4.332C5.417,4.183,5.296,4.062,5.148,4.062z
	 M7.571,4.062H7.178c-0.148,0-0.269,0.121-0.269,0.27v10.277c0,0.148,0.121,0.269,0.269,0.269h0.394c0.148,0,0.27-0.12,0.27-0.269
	V4.332C7.841,4.183,7.719,4.062,7.571,4.062z M10.853,4.062H9.214c-0.148,0-0.27,0.121-0.27,0.269v5.345
	c0.545-0.785,1.297-1.414,2.178-1.811V4.331C11.122,4.183,11.005,4.062,10.853,4.062z M12.774,4.062h-0.006
	c-0.148,0-0.271,0.121-0.271,0.269v3.122c0.181-0.027,0.362-0.046,0.545-0.056V4.331C13.043,4.183,12.925,4.062,12.774,4.062z
	 M14.295,4.062h-0.179c-0.146,0-0.269,0.121-0.269,0.269v3.087c0.243,0.023,0.482,0.064,0.716,0.124V4.331
	C14.563,4.183,14.442,4.062,14.295,4.062z M16.275,4.062h-0.868c-0.148,0-0.269,0.121-0.269,0.269v3.383
	c0.508,0.186,0.982,0.45,1.405,0.775V4.331C16.544,4.183,16.423,4.062,16.275,4.062z M19.531,17.475l-2.225-2.226
	c0.466-0.733,0.739-1.6,0.739-2.53c0-2.612-2.124-4.735-4.735-4.735c-2.609,0-4.735,2.123-4.735,4.735
	c0,2.609,2.125,4.734,4.735,4.734c0.932,0,1.799-0.274,2.531-0.74l2.225,2.227c0.203,0.201,0.468,0.303,0.732,0.303
	c0.266,0,0.53-0.102,0.732-0.303C19.936,18.534,19.936,17.878,19.531,17.475z M10.056,12.719c0-1.795,1.459-3.256,3.254-3.256
	c1.796,0,3.255,1.461,3.255,3.256s-1.459,3.255-3.255,3.255C11.516,15.974,10.056,14.514,10.056,12.719z"/>
</svg>
